HIERARCHY
ROOT Pelvis
{
	OFFSET 0.000000 0.000000 0.000000
	CHANNELS 6 Xposition Yposition Zposition Zrotation Yrotation Xrotation 
	JOINT Left_hip
	{
		OFFSET 0.076090 -0.089427 -0.010735
		CHANNELS 3 Zrotation Yrotation Xrotation
		JOINT Left_knee
		{
			OFFSET 0.030200 -0.359518 -0.003501
			CHANNELS 3 Zrotation Yrotation Xrotation
			JOINT Left_ankle
			{
				OFFSET -0.011005 -0.371022 -0.045888
				CHANNELS 3 Zrotation Yrotation Xrotation
				JOINT Left_foot
				{
					OFFSET 0.023930 -0.052103 0.111084
					CHANNELS 3 Zrotation Yrotation Xrotation
					End Site
					{
						OFFSET 0.000000 0.000000 0.000000
					}
				}
			}
		}
	}
	JOINT Right_hip
	{
		OFFSET -0.073836 -0.088112 -0.007709
		CHANNELS 3 Zrotation Yrotation Xrotation
		JOINT Right_knee
		{
			OFFSET -0.035715 -0.367809 -0.006536
			CHANNELS 3 Zrotation Yrotation Xrotation
			JOINT Right_ankle
			{
				OFFSET 0.013718 -0.371958 -0.043815
				CHANNELS 3 Zrotation Yrotation Xrotation
				JOINT Right_foot
				{
					OFFSET -0.021936 -0.046387 0.114542
					CHANNELS 3 Zrotation Yrotation Xrotation
					End Site
					{
						OFFSET 0.000000 0.000000 0.000000
					}
				}
			}
		}
	}
	JOINT Spine1
	{
		OFFSET -0.001865 0.102064 -0.019455
		CHANNELS 3 Zrotation Yrotation Xrotation
		JOINT Spine2
		{
			OFFSET 0.003082 0.129260 -0.001938
			CHANNELS 3 Zrotation Yrotation Xrotation
			JOINT Spine3
			{
				OFFSET 0.001104 0.048093 0.026561
				CHANNELS 3 Zrotation Yrotation Xrotation
				JOINT Neck
				{
					OFFSET -0.002010 0.204222 -0.047183
					CHANNELS 3 Zrotation Yrotation Xrotation
					JOINT Head
					{
						OFFSET 0.005050 0.063649 0.048489
						CHANNELS 3 Zrotation Yrotation Xrotation
						End Site
						{
							OFFSET 0.000000 0.000000 0.000000
						}
					}
				}
				JOINT Left_collar
				{
					OFFSET 0.072979 0.114065 -0.031633
					CHANNELS 3 Zrotation Yrotation Xrotation
					JOINT Left_shoulder
					{
						OFFSET 0.083419 0.032092 -0.006530
						CHANNELS 3 Zrotation Yrotation Xrotation
						JOINT Left_elbow
						{
							OFFSET 0.239393 -0.012014 -0.025060
							CHANNELS 3 Zrotation Yrotation Xrotation
							JOINT Left_wrist
							{
								OFFSET 0.227297 0.008116 0.000384
								CHANNELS 3 Zrotation Yrotation Xrotation
								JOINT Left_palm
								{
									OFFSET 0.074607 -0.009248 -0.012277
									CHANNELS 3 Zrotation Yrotation Xrotation
									End Site
									{
										OFFSET 0.000000 0.000000 0.000000
									}
								}
							}
						}
					}
				}
				JOINT Right_collar
				{
					OFFSET -0.074980 0.111880 -0.037894
					CHANNELS 3 Zrotation Yrotation Xrotation
					JOINT Right_shoulder
					{
						OFFSET -0.087565 0.034353 -0.009323
						CHANNELS 3 Zrotation Yrotation Xrotation
						JOINT Right_elbow
						{
							OFFSET -0.236838 -0.013719 -0.019794
							CHANNELS 3 Zrotation Yrotation Xrotation
							JOINT Right_wrist
							{
								OFFSET -0.235053 0.006433 -0.003853
								CHANNELS 3 Zrotation Yrotation Xrotation
								JOINT Right_palm
								{
									OFFSET -0.075499 -0.006894 -0.009792
									CHANNELS 3 Zrotation Yrotation Xrotation
									End Site
									{
										OFFSET 0.000000 0.000000 0.000000
									}
								}
							}
						}
					}
				}
			}
		}
	}
}
MOTION
Frames: 9
Frame Time: 0.100000
0.000000 0.000000 0.000000 164.896390 36.479636 -34.234006 17.327951 -3.251378 1.419821 4.232385 -14.070980 16.343769 -12.624119 12.126864 -3.472961 16.241409 11.305090 -11.806614 8.811002 -4.973266 19.684999 6.413190 5.640785 -5.338870 -1.352100 -6.277778 -9.320315 1.321082 -9.365100 2.164775 5.232578 1.085865 10.654551 2.767786 -3.154215 8.834330 4.041102 -2.555517 5.120204 -2.033068 -8.333601 0.576500 0.512999 -5.610719 -6.133807 -14.782002 10.252527 1.695076 -57.222371 -4.401705 6.273653 135.317519 -67.505199 -106.266057 5.926435 -6.605589 -25.620877 -3.183973 -0.416168 -1.608262 7.237501 -4.760271 -0.589395 46.382169 -5.440470 12.074023 -155.102490 67.775693 -128.273117 -8.239558 8.090224 -19.882811 9.473977 3.954676 -1.440513 
0.001927 0.000927 -0.000120 164.702265 36.035091 -34.820583 17.345678 -3.998478 1.923119 5.587092 -12.381521 16.356794 -11.313358 10.160823 -2.601181 15.723561 13.220792 -13.436346 9.474591 -5.040160 20.242302 6.077112 3.035709 -5.395080 -3.025568 -2.260643 -8.690512 3.850108 -13.040310 0.478543 4.386411 1.742320 10.366460 3.280505 -3.346071 8.723066 4.489289 -2.568499 5.141588 -2.926181 -5.622723 0.414090 -0.628574 -4.445528 -4.713071 -14.368123 8.512601 1.763813 -74.946756 -10.677058 13.259769 145.675161 -56.113474 -115.616711 19.117527 1.942347 -42.314449 -6.042764 -1.956654 2.645081 9.299418 -3.586475 -1.676356 66.123005 0.533177 14.685198 -140.128153 52.285755 -115.718714 -22.279271 1.048758 -31.366870 14.541393 6.313640 -4.269263 
0.002408 0.000662 0.000935 164.622936 36.229609 -35.122880 17.444074 -3.890583 2.370682 5.894642 -11.916832 16.092377 -11.651013 9.647652 -2.615324 16.709667 13.313756 -13.068418 9.646577 -4.810862 20.494961 5.995048 2.435081 -5.435355 -2.502785 -1.795147 -8.712925 2.701737 -12.905907 0.604157 3.693905 1.976101 10.076897 3.776102 -4.054525 8.813476 4.343307 -2.695267 4.593152 -2.706211 -2.318889 -1.168576 -2.198072 -4.740415 -3.399756 -14.772212 6.689634 2.737319 -75.218262 -9.655000 14.767628 150.709506 -59.885887 -117.867784 19.065824 0.720579 -36.969367 -8.230319 -2.908131 -0.759881 12.026474 -2.470808 -1.978567 70.828637 1.870662 15.697923 -138.192658 50.271222 -112.370392 -25.508723 1.304881 -29.045089 17.346048 7.522023 -6.617947 
0.002136 0.001214 0.001198 164.786300 35.569611 -34.735639 17.723014 -3.807976 2.216169 5.537738 -11.961654 16.400223 -12.605760 10.505068 -3.156984 18.618134 12.856541 -12.687699 9.691249 -4.611815 20.163027 6.058035 3.871581 -5.286208 -1.190712 -3.503045 -8.975369 -0.531932 -10.234604 0.836616 3.715017 1.603446 9.427809 3.600962 -4.216122 9.093818 4.463457 -3.080074 4.634597 -2.952194 -1.753839 -3.117272 -2.020043 -3.033869 -4.110173 -15.566731 5.918486 3.760074 -74.400830 -7.614874 14.924213 145.587351 -61.654118 -118.303749 19.795790 3.578040 -42.158957 -8.975379 -3.272054 -1.255416 11.726757 -1.607872 -1.156486 67.528334 0.659920 16.246665 -135.739024 52.411602 -115.413667 -26.285461 -0.668010 -33.705099 18.067933 7.554950 -7.732036 
0.002172 0.000719 0.000689 164.622966 35.421100 -34.685852 17.737548 -3.863545 2.084979 5.629673 -12.102468 16.408892 -12.821499 10.887212 -2.902397 19.243746 13.033958 -13.387993 10.015376 -4.482932 19.680098 5.772823 4.417143 -4.800542 -0.308895 -4.179341 -8.753884 -2.515473 -9.988023 -0.356860 3.704004 1.300247 9.095105 3.465981 -4.229819 8.868028 4.690223 -3.389970 5.169663 -3.091439 -2.525886 -3.445875 -1.312889 -2.249950 -5.338818 -13.754633 7.035072 4.101193 -76.956265 -7.176741 14.344180 144.922480 -60.982216 -117.423125 20.844972 5.062032 -44.098519 -8.447362 -3.261736 -0.881355 9.170352 -2.626615 -1.176931 67.953643 0.078138 15.488021 -135.725990 52.368379 -115.420699 -27.728742 -1.501541 -33.712162 17.945870 7.371758 -7.985413 
0.003266 0.000301 -0.000601 164.427522 35.918885 -34.865124 17.718242 -4.022350 2.026964 5.578545 -12.175680 16.025219 -12.155748 10.613828 -2.367872 18.049144 13.386112 -13.892322 10.031925 -4.582303 19.420002 5.712944 3.968520 -4.543196 -1.434174 -3.573018 -8.600248 -0.214446 -11.387502 -0.955050 3.516782 1.360856 8.631787 3.605228 -4.163377 8.692021 4.733011 -3.425409 5.712571 -3.611444 -3.628471 -1.700530 -1.071602 -3.146793 -6.975744 -11.505000 8.824082 2.974617 -78.768186 -9.738035 14.848577 143.880689 -58.954362 -117.399411 19.431758 6.811224 -50.694997 -7.013450 -2.738876 2.318101 7.800406 -4.912287 -2.180115 70.811764 0.603494 15.870312 -134.974390 50.278728 -114.913194 -27.322861 -3.170097 -36.672145 17.334200 7.283897 -7.069420 
0.004962 0.000540 -0.001557 164.189305 36.784411 -35.321878 17.613723 -4.032214 1.985179 5.544446 -12.353909 15.783543 -11.378510 9.726557 -1.600542 16.208385 14.853442 -14.711694 9.929813 -4.723660 19.551330 5.754800 3.170747 -4.583748 -2.608567 -2.974112 -8.527442 2.178662 -12.164401 -1.102724 3.515995 1.403444 9.015606 3.443228 -3.730179 8.198925 4.456186 -3.294178 5.829822 -3.132320 -4.201900 -0.375479 -1.024671 -4.274928 -6.241713 -11.446411 10.370959 1.474231 -78.335799 -13.390805 14.124763 143.339146 -53.370128 -116.070025 20.735097 7.560494 -51.386131 -6.193882 -2.451603 4.158747 8.379437 -6.423895 -2.941506 73.193182 0.536600 16.023960 -134.769838 46.630687 -114.577418 -29.800445 -4.360743 -39.155663 17.571968 7.207853 -6.181666 
0.006003 0.000909 -0.001454 163.827778 37.294006 -35.633324 17.602052 -4.195866 1.852646 5.665889 -12.565299 15.808028 -11.224809 9.557023 -1.395662 15.779461 15.521312 -15.184477 9.964413 -4.864027 19.636647 5.903795 3.092253 -4.768769 -2.789575 -3.063414 -8.430779 2.459889 -11.924794 -1.147123 3.647105 1.372215 9.297781 3.525051 -3.347884 7.820941 4.488088 -3.278497 6.053665 -2.724650 -4.976123 -0.243767 -1.333608 -4.846285 -5.532089 -12.271255 12.324317 0.856483 -78.410804 -13.921898 12.998893 143.233038 -48.662124 -115.949147 24.866363 9.806045 -51.900937 -6.656204 -2.902760 4.706111 9.435550 -7.309872 -3.698269 72.831990 1.205723 15.664400 -135.054513 42.606987 -115.216430 -36.389944 -5.288523 -38.020827 19.025940 7.724898 -6.377879 
0.006092 0.000902 -0.000054 163.835341 37.317830 -35.736052 17.597733 -4.219677 1.867129 5.692472 -12.557256 16.191809 -10.579044 9.555102 -1.558032 14.980231 15.525130 -15.157066 9.994487 -4.931868 19.870854 5.973883 3.050388 -4.870511 -3.572999 -2.473949 -8.403922 3.994798 -13.152279 -1.306299 3.938671 1.482639 9.349815 3.551031 -2.847723 7.510959 4.441146 -3.122496 6.304212 -2.582327 -5.641047 0.491953 -1.799218 -5.075111 -5.375359 -12.735901 15.359902 0.324854 -78.889080 -13.351171 11.454734 141.907987 -47.115295 -114.421057 24.439594 10.050082 -53.487507 -6.395991 -2.689407 5.382815 9.723881 -9.445562 -4.240971 72.816719 1.566914 15.084621 -136.491904 40.023114 -115.901894 -36.801829 -4.962396 -39.205319 18.916929 7.334378 -5.548781 
